<mxfile host="app.diagrams.net" modified="2023-05-02T23:05:13.421Z" agent="Mozilla/5.0 (Windows NT 10.0; Win64; x64) AppleWebKit/537.36 (KHTML, like Gecko) Chrome/112.0.0.0 Safari/537.36" etag="coRWula0ebWqepF07X4W" version="21.2.4" type="device">
  <diagram name="Страница 1" id="gBljDxb7XRltwvXaUtLj">
    <mxGraphModel dx="1843" dy="701" grid="1" gridSize="10" guides="1" tooltips="1" connect="1" arrows="1" fold="1" page="1" pageScale="1" pageWidth="1654" pageHeight="1169" math="0" shadow="0">
      <root>
        <mxCell id="0" />
        <mxCell id="1" parent="0" />
        <mxCell id="J_Xm8iJVJi45nVl2dkx6-49" style="edgeStyle=orthogonalEdgeStyle;rounded=0;orthogonalLoop=1;jettySize=auto;html=1;entryX=0.5;entryY=0;entryDx=0;entryDy=0;" edge="1" parent="1" target="J_Xm8iJVJi45nVl2dkx6-2">
          <mxGeometry relative="1" as="geometry">
            <mxPoint x="370" y="190" as="sourcePoint" />
          </mxGeometry>
        </mxCell>
        <mxCell id="J_Xm8iJVJi45nVl2dkx6-53" style="edgeStyle=orthogonalEdgeStyle;rounded=0;orthogonalLoop=1;jettySize=auto;html=1;exitX=1;exitY=0.3333333333333333;exitDx=0;exitDy=0;exitPerimeter=0;entryX=0;entryY=0.5;entryDx=0;entryDy=0;" edge="1" parent="1" source="J_Xm8iJVJi45nVl2dkx6-1" target="J_Xm8iJVJi45nVl2dkx6-52">
          <mxGeometry relative="1" as="geometry" />
        </mxCell>
        <mxCell id="J_Xm8iJVJi45nVl2dkx6-1" value="Админ" style="shape=umlActor;verticalLabelPosition=bottom;verticalAlign=top;html=1;outlineConnect=0;" vertex="1" parent="1">
          <mxGeometry x="355" y="130" width="30" height="60" as="geometry" />
        </mxCell>
        <mxCell id="J_Xm8iJVJi45nVl2dkx6-2" value="Управление БД" style="ellipse;whiteSpace=wrap;html=1;" vertex="1" parent="1">
          <mxGeometry x="310" y="240" width="120" height="80" as="geometry" />
        </mxCell>
        <mxCell id="J_Xm8iJVJi45nVl2dkx6-4" value="Добавление фильма, сериала в БД" style="ellipse;whiteSpace=wrap;html=1;" vertex="1" parent="1">
          <mxGeometry x="275" y="380" width="120" height="80" as="geometry" />
        </mxCell>
        <mxCell id="J_Xm8iJVJi45nVl2dkx6-5" value="Просмотр данных о пользователях&lt;br&gt;(логин, предпочтения)" style="ellipse;whiteSpace=wrap;html=1;" vertex="1" parent="1">
          <mxGeometry x="440" y="380" width="150" height="80" as="geometry" />
        </mxCell>
        <mxCell id="J_Xm8iJVJi45nVl2dkx6-10" value="&amp;lt;&amp;lt;include&amp;gt;&amp;gt;" style="endArrow=open;endSize=12;dashed=1;html=1;rounded=0;exitX=0.5;exitY=1;exitDx=0;exitDy=0;entryX=0.5;entryY=0;entryDx=0;entryDy=0;" edge="1" parent="1" source="J_Xm8iJVJi45nVl2dkx6-2" target="J_Xm8iJVJi45nVl2dkx6-4">
          <mxGeometry width="160" relative="1" as="geometry">
            <mxPoint x="460" y="490" as="sourcePoint" />
            <mxPoint x="620" y="490" as="targetPoint" />
          </mxGeometry>
        </mxCell>
        <mxCell id="J_Xm8iJVJi45nVl2dkx6-12" value="&amp;lt;&amp;lt;include&amp;gt;&amp;gt;" style="endArrow=open;endSize=12;dashed=1;html=1;rounded=0;exitX=0.5;exitY=1;exitDx=0;exitDy=0;entryX=0.5;entryY=0;entryDx=0;entryDy=0;" edge="1" parent="1" source="J_Xm8iJVJi45nVl2dkx6-2" target="J_Xm8iJVJi45nVl2dkx6-5">
          <mxGeometry width="160" relative="1" as="geometry">
            <mxPoint x="380" y="330" as="sourcePoint" />
            <mxPoint x="150" y="440" as="targetPoint" />
          </mxGeometry>
        </mxCell>
        <mxCell id="J_Xm8iJVJi45nVl2dkx6-15" value="Добавить описание" style="ellipse;whiteSpace=wrap;html=1;" vertex="1" parent="1">
          <mxGeometry x="90" y="520" width="120" height="80" as="geometry" />
        </mxCell>
        <mxCell id="J_Xm8iJVJi45nVl2dkx6-16" value="&amp;lt;&amp;lt;extend&amp;gt;&amp;gt;" style="endArrow=open;endSize=12;dashed=1;html=1;rounded=0;exitX=0.5;exitY=0;exitDx=0;exitDy=0;entryX=0.5;entryY=1;entryDx=0;entryDy=0;" edge="1" parent="1" source="J_Xm8iJVJi45nVl2dkx6-15" target="J_Xm8iJVJi45nVl2dkx6-4">
          <mxGeometry width="160" relative="1" as="geometry">
            <mxPoint x="525" y="510" as="sourcePoint" />
            <mxPoint x="295" y="620" as="targetPoint" />
          </mxGeometry>
        </mxCell>
        <mxCell id="J_Xm8iJVJi45nVl2dkx6-25" value="Добавить кадры из фильма" style="ellipse;whiteSpace=wrap;html=1;" vertex="1" parent="1">
          <mxGeometry x="230" y="520" width="120" height="80" as="geometry" />
        </mxCell>
        <mxCell id="J_Xm8iJVJi45nVl2dkx6-26" value="&amp;lt;&amp;lt;extend&amp;gt;&amp;gt;" style="endArrow=open;endSize=12;dashed=1;html=1;rounded=0;exitX=0.5;exitY=0;exitDx=0;exitDy=0;entryX=0.5;entryY=1;entryDx=0;entryDy=0;" edge="1" parent="1" source="J_Xm8iJVJi45nVl2dkx6-25" target="J_Xm8iJVJi45nVl2dkx6-4">
          <mxGeometry width="160" relative="1" as="geometry">
            <mxPoint x="715" y="570" as="sourcePoint" />
            <mxPoint x="525" y="520" as="targetPoint" />
          </mxGeometry>
        </mxCell>
        <mxCell id="J_Xm8iJVJi45nVl2dkx6-27" value="Добавить трейлер" style="ellipse;whiteSpace=wrap;html=1;" vertex="1" parent="1">
          <mxGeometry x="380" y="520" width="120" height="80" as="geometry" />
        </mxCell>
        <mxCell id="J_Xm8iJVJi45nVl2dkx6-28" value="&amp;lt;&amp;lt;extend&amp;gt;&amp;gt;" style="endArrow=open;endSize=12;dashed=1;html=1;rounded=0;exitX=0.5;exitY=0;exitDx=0;exitDy=0;entryX=0.5;entryY=1;entryDx=0;entryDy=0;" edge="1" parent="1" source="J_Xm8iJVJi45nVl2dkx6-27" target="J_Xm8iJVJi45nVl2dkx6-4">
          <mxGeometry width="160" relative="1" as="geometry">
            <mxPoint x="895" y="580" as="sourcePoint" />
            <mxPoint x="705" y="530" as="targetPoint" />
          </mxGeometry>
        </mxCell>
        <mxCell id="J_Xm8iJVJi45nVl2dkx6-33" value="Удаление пользователя" style="ellipse;whiteSpace=wrap;html=1;" vertex="1" parent="1">
          <mxGeometry x="515" y="520" width="120" height="80" as="geometry" />
        </mxCell>
        <mxCell id="J_Xm8iJVJi45nVl2dkx6-35" value="&amp;lt;&amp;lt;include&amp;gt;&amp;gt;" style="endArrow=open;endSize=12;dashed=1;html=1;rounded=0;exitX=0.5;exitY=1;exitDx=0;exitDy=0;entryX=0.5;entryY=0;entryDx=0;entryDy=0;" edge="1" parent="1" source="J_Xm8iJVJi45nVl2dkx6-5" target="J_Xm8iJVJi45nVl2dkx6-33">
          <mxGeometry width="160" relative="1" as="geometry">
            <mxPoint x="525" y="460" as="sourcePoint" />
            <mxPoint x="595" y="570" as="targetPoint" />
          </mxGeometry>
        </mxCell>
        <mxCell id="J_Xm8iJVJi45nVl2dkx6-40" value="Удаление фильма, сериала из БД" style="ellipse;whiteSpace=wrap;html=1;" vertex="1" parent="1">
          <mxGeometry x="80" y="380" width="120" height="80" as="geometry" />
        </mxCell>
        <mxCell id="J_Xm8iJVJi45nVl2dkx6-41" value="&amp;lt;&amp;lt;include&amp;gt;&amp;gt;" style="endArrow=open;endSize=12;dashed=1;html=1;rounded=0;exitX=0.5;exitY=1;exitDx=0;exitDy=0;entryX=0.5;entryY=0;entryDx=0;entryDy=0;" edge="1" parent="1" target="J_Xm8iJVJi45nVl2dkx6-40" source="J_Xm8iJVJi45nVl2dkx6-2">
          <mxGeometry width="160" relative="1" as="geometry">
            <mxPoint x="20" y="130" as="sourcePoint" />
            <mxPoint x="-190" y="260" as="targetPoint" />
          </mxGeometry>
        </mxCell>
        <mxCell id="J_Xm8iJVJi45nVl2dkx6-45" value="Добавление заголовка на главную страницу" style="ellipse;whiteSpace=wrap;html=1;" vertex="1" parent="1">
          <mxGeometry x="650" y="20" width="120" height="80" as="geometry" />
        </mxCell>
        <mxCell id="J_Xm8iJVJi45nVl2dkx6-50" value="Добавление фильма, сериала из БД" style="ellipse;whiteSpace=wrap;html=1;" vertex="1" parent="1">
          <mxGeometry x="650" y="110" width="120" height="80" as="geometry" />
        </mxCell>
        <mxCell id="J_Xm8iJVJi45nVl2dkx6-51" value="&amp;lt;&amp;lt;include&amp;gt;&amp;gt;" style="endArrow=open;endSize=12;dashed=1;html=1;rounded=0;exitX=1;exitY=0.5;exitDx=0;exitDy=0;entryX=0;entryY=0.5;entryDx=0;entryDy=0;" edge="1" parent="1" target="J_Xm8iJVJi45nVl2dkx6-50" source="J_Xm8iJVJi45nVl2dkx6-52">
          <mxGeometry width="160" relative="1" as="geometry">
            <mxPoint x="764.9999999999832" y="-39.999999999999886" as="sourcePoint" />
            <mxPoint x="690" y="190" as="targetPoint" />
          </mxGeometry>
        </mxCell>
        <mxCell id="J_Xm8iJVJi45nVl2dkx6-52" value="Заполнение главной страницы" style="ellipse;whiteSpace=wrap;html=1;" vertex="1" parent="1">
          <mxGeometry x="430" y="110" width="120" height="80" as="geometry" />
        </mxCell>
        <mxCell id="J_Xm8iJVJi45nVl2dkx6-54" value="&amp;lt;&amp;lt;include&amp;gt;&amp;gt;" style="endArrow=open;endSize=12;dashed=1;html=1;rounded=0;exitX=1;exitY=0.5;exitDx=0;exitDy=0;entryX=0;entryY=0.5;entryDx=0;entryDy=0;" edge="1" parent="1" source="J_Xm8iJVJi45nVl2dkx6-52" target="J_Xm8iJVJi45nVl2dkx6-45">
          <mxGeometry width="160" relative="1" as="geometry">
            <mxPoint x="565" y="90" as="sourcePoint" />
            <mxPoint x="635" y="200" as="targetPoint" />
          </mxGeometry>
        </mxCell>
        <mxCell id="J_Xm8iJVJi45nVl2dkx6-55" value="Добавить по названию" style="ellipse;whiteSpace=wrap;html=1;" vertex="1" parent="1">
          <mxGeometry x="890" y="110" width="120" height="80" as="geometry" />
        </mxCell>
        <mxCell id="J_Xm8iJVJi45nVl2dkx6-56" value="&amp;lt;&amp;lt;extends&amp;gt;&amp;gt;" style="endArrow=open;endSize=12;dashed=1;html=1;rounded=0;exitX=0;exitY=0.5;exitDx=0;exitDy=0;entryX=1;entryY=0.5;entryDx=0;entryDy=0;" edge="1" parent="1" source="J_Xm8iJVJi45nVl2dkx6-55" target="J_Xm8iJVJi45nVl2dkx6-50">
          <mxGeometry width="160" relative="1" as="geometry">
            <mxPoint x="1170" y="100" as="sourcePoint" />
            <mxPoint x="980" y="50" as="targetPoint" />
          </mxGeometry>
        </mxCell>
        <mxCell id="J_Xm8iJVJi45nVl2dkx6-57" value="Добавить по жанру" style="ellipse;whiteSpace=wrap;html=1;" vertex="1" parent="1">
          <mxGeometry x="890" y="20" width="120" height="80" as="geometry" />
        </mxCell>
        <mxCell id="J_Xm8iJVJi45nVl2dkx6-58" value="&amp;lt;&amp;lt;extends&amp;gt;&amp;gt;" style="endArrow=open;endSize=12;dashed=1;html=1;rounded=0;exitX=0;exitY=0.5;exitDx=0;exitDy=0;entryX=1;entryY=0.5;entryDx=0;entryDy=0;" edge="1" parent="1" source="J_Xm8iJVJi45nVl2dkx6-57" target="J_Xm8iJVJi45nVl2dkx6-50">
          <mxGeometry width="160" relative="1" as="geometry">
            <mxPoint x="1170" y="10" as="sourcePoint" />
            <mxPoint x="770" y="60" as="targetPoint" />
          </mxGeometry>
        </mxCell>
        <mxCell id="J_Xm8iJVJi45nVl2dkx6-94" style="edgeStyle=orthogonalEdgeStyle;rounded=0;orthogonalLoop=1;jettySize=auto;html=1;exitX=1;exitY=0.3333333333333333;exitDx=0;exitDy=0;exitPerimeter=0;entryX=0;entryY=0.5;entryDx=0;entryDy=0;" edge="1" parent="1" source="J_Xm8iJVJi45nVl2dkx6-59" target="J_Xm8iJVJi45nVl2dkx6-93">
          <mxGeometry relative="1" as="geometry" />
        </mxCell>
        <mxCell id="J_Xm8iJVJi45nVl2dkx6-59" value="Пользователь" style="shape=umlActor;verticalLabelPosition=bottom;verticalAlign=top;html=1;outlineConnect=0;" vertex="1" parent="1">
          <mxGeometry x="1160" y="290" width="30" height="60" as="geometry" />
        </mxCell>
        <mxCell id="J_Xm8iJVJi45nVl2dkx6-64" value="Регистрация" style="ellipse;whiteSpace=wrap;html=1;" vertex="1" parent="1">
          <mxGeometry x="1030" y="400" width="120" height="80" as="geometry" />
        </mxCell>
        <mxCell id="J_Xm8iJVJi45nVl2dkx6-65" value="Авторизация" style="ellipse;whiteSpace=wrap;html=1;" vertex="1" parent="1">
          <mxGeometry x="1190" y="400" width="120" height="80" as="geometry" />
        </mxCell>
        <mxCell id="J_Xm8iJVJi45nVl2dkx6-67" value="" style="endArrow=classic;html=1;rounded=0;entryX=0.5;entryY=0;entryDx=0;entryDy=0;" edge="1" parent="1" target="J_Xm8iJVJi45nVl2dkx6-64">
          <mxGeometry width="50" height="50" relative="1" as="geometry">
            <mxPoint x="1175" y="350" as="sourcePoint" />
            <mxPoint x="1340" y="410" as="targetPoint" />
          </mxGeometry>
        </mxCell>
        <mxCell id="J_Xm8iJVJi45nVl2dkx6-68" value="" style="endArrow=classic;html=1;rounded=0;entryX=0.5;entryY=0;entryDx=0;entryDy=0;" edge="1" parent="1" target="J_Xm8iJVJi45nVl2dkx6-65">
          <mxGeometry width="50" height="50" relative="1" as="geometry">
            <mxPoint x="1170" y="350" as="sourcePoint" />
            <mxPoint x="1100" y="410" as="targetPoint" />
          </mxGeometry>
        </mxCell>
        <mxCell id="J_Xm8iJVJi45nVl2dkx6-69" value="Ввод данных" style="ellipse;whiteSpace=wrap;html=1;" vertex="1" parent="1">
          <mxGeometry x="1210" y="520" width="120" height="80" as="geometry" />
        </mxCell>
        <mxCell id="J_Xm8iJVJi45nVl2dkx6-70" value="&amp;lt;&amp;lt;include&amp;gt;&amp;gt;" style="endArrow=open;endSize=12;dashed=1;html=1;rounded=0;exitX=0.5;exitY=1;exitDx=0;exitDy=0;entryX=0.5;entryY=0;entryDx=0;entryDy=0;" edge="1" parent="1" target="J_Xm8iJVJi45nVl2dkx6-69">
          <mxGeometry width="160" relative="1" as="geometry">
            <mxPoint x="1250" y="480" as="sourcePoint" />
            <mxPoint x="1040" y="610" as="targetPoint" />
          </mxGeometry>
        </mxCell>
        <mxCell id="J_Xm8iJVJi45nVl2dkx6-74" value="Ввод данных для регистрации" style="ellipse;whiteSpace=wrap;html=1;" vertex="1" parent="1">
          <mxGeometry x="920" y="530" width="120" height="80" as="geometry" />
        </mxCell>
        <mxCell id="J_Xm8iJVJi45nVl2dkx6-75" value="&amp;lt;&amp;lt;include&amp;gt;&amp;gt;" style="endArrow=open;endSize=12;dashed=1;html=1;rounded=0;entryX=0.5;entryY=0;entryDx=0;entryDy=0;" edge="1" parent="1" target="J_Xm8iJVJi45nVl2dkx6-74">
          <mxGeometry width="160" relative="1" as="geometry">
            <mxPoint x="1090" y="480" as="sourcePoint" />
            <mxPoint x="750" y="620" as="targetPoint" />
          </mxGeometry>
        </mxCell>
        <mxCell id="J_Xm8iJVJi45nVl2dkx6-78" value="Ввод логина" style="ellipse;whiteSpace=wrap;html=1;" vertex="1" parent="1">
          <mxGeometry x="790" y="670" width="120" height="80" as="geometry" />
        </mxCell>
        <mxCell id="J_Xm8iJVJi45nVl2dkx6-80" value="Ввод пароля" style="ellipse;whiteSpace=wrap;html=1;" vertex="1" parent="1">
          <mxGeometry x="930" y="670" width="120" height="80" as="geometry" />
        </mxCell>
        <mxCell id="J_Xm8iJVJi45nVl2dkx6-82" value="Подтверждение пароля" style="ellipse;whiteSpace=wrap;html=1;" vertex="1" parent="1">
          <mxGeometry x="1070" y="670" width="120" height="80" as="geometry" />
        </mxCell>
        <mxCell id="J_Xm8iJVJi45nVl2dkx6-84" value="Ввод логина" style="ellipse;whiteSpace=wrap;html=1;" vertex="1" parent="1">
          <mxGeometry x="1230" y="680" width="120" height="80" as="geometry" />
        </mxCell>
        <mxCell id="J_Xm8iJVJi45nVl2dkx6-86" value="Ввод пароля" style="ellipse;whiteSpace=wrap;html=1;" vertex="1" parent="1">
          <mxGeometry x="1370" y="680" width="120" height="80" as="geometry" />
        </mxCell>
        <mxCell id="J_Xm8iJVJi45nVl2dkx6-88" value="&amp;lt;&amp;lt;include&amp;gt;&amp;gt;" style="endArrow=open;endSize=12;dashed=1;html=1;rounded=0;entryX=0.5;entryY=0;entryDx=0;entryDy=0;exitX=0.5;exitY=1;exitDx=0;exitDy=0;" edge="1" parent="1" source="J_Xm8iJVJi45nVl2dkx6-74" target="J_Xm8iJVJi45nVl2dkx6-78">
          <mxGeometry width="160" relative="1" as="geometry">
            <mxPoint x="970" y="610" as="sourcePoint" />
            <mxPoint x="940" y="660" as="targetPoint" />
          </mxGeometry>
        </mxCell>
        <mxCell id="J_Xm8iJVJi45nVl2dkx6-89" value="&amp;lt;&amp;lt;include&amp;gt;&amp;gt;" style="endArrow=open;endSize=12;dashed=1;html=1;rounded=0;entryX=0.5;entryY=0;entryDx=0;entryDy=0;exitX=0.5;exitY=1;exitDx=0;exitDy=0;" edge="1" parent="1" source="J_Xm8iJVJi45nVl2dkx6-74" target="J_Xm8iJVJi45nVl2dkx6-80">
          <mxGeometry width="160" relative="1" as="geometry">
            <mxPoint x="990" y="620" as="sourcePoint" />
            <mxPoint x="860" y="680" as="targetPoint" />
          </mxGeometry>
        </mxCell>
        <mxCell id="J_Xm8iJVJi45nVl2dkx6-90" value="&amp;lt;&amp;lt;include&amp;gt;&amp;gt;" style="endArrow=open;endSize=12;dashed=1;html=1;rounded=0;entryX=0.5;entryY=0;entryDx=0;entryDy=0;exitX=0.5;exitY=1;exitDx=0;exitDy=0;" edge="1" parent="1" source="J_Xm8iJVJi45nVl2dkx6-74" target="J_Xm8iJVJi45nVl2dkx6-82">
          <mxGeometry width="160" relative="1" as="geometry">
            <mxPoint x="1000" y="630" as="sourcePoint" />
            <mxPoint x="870" y="690" as="targetPoint" />
          </mxGeometry>
        </mxCell>
        <mxCell id="J_Xm8iJVJi45nVl2dkx6-91" value="&amp;lt;&amp;lt;include&amp;gt;&amp;gt;" style="endArrow=open;endSize=12;dashed=1;html=1;rounded=0;entryX=0.5;entryY=0;entryDx=0;entryDy=0;exitX=0.5;exitY=1;exitDx=0;exitDy=0;" edge="1" parent="1" source="J_Xm8iJVJi45nVl2dkx6-69" target="J_Xm8iJVJi45nVl2dkx6-86">
          <mxGeometry width="160" relative="1" as="geometry">
            <mxPoint x="1010" y="640" as="sourcePoint" />
            <mxPoint x="880" y="700" as="targetPoint" />
          </mxGeometry>
        </mxCell>
        <mxCell id="J_Xm8iJVJi45nVl2dkx6-92" value="&amp;lt;&amp;lt;include&amp;gt;&amp;gt;" style="endArrow=open;endSize=12;dashed=1;html=1;rounded=0;entryX=0.5;entryY=0;entryDx=0;entryDy=0;exitX=0.5;exitY=1;exitDx=0;exitDy=0;" edge="1" parent="1" source="J_Xm8iJVJi45nVl2dkx6-69" target="J_Xm8iJVJi45nVl2dkx6-84">
          <mxGeometry width="160" relative="1" as="geometry">
            <mxPoint x="1020" y="650" as="sourcePoint" />
            <mxPoint x="890" y="710" as="targetPoint" />
          </mxGeometry>
        </mxCell>
        <mxCell id="J_Xm8iJVJi45nVl2dkx6-93" value="Использование функционала приложения" style="ellipse;whiteSpace=wrap;html=1;" vertex="1" parent="1">
          <mxGeometry x="1290" y="270" width="120" height="80" as="geometry" />
        </mxCell>
        <mxCell id="J_Xm8iJVJi45nVl2dkx6-95" value="Подбор фильма, сериала" style="ellipse;whiteSpace=wrap;html=1;" vertex="1" parent="1">
          <mxGeometry x="1534" y="200" width="120" height="80" as="geometry" />
        </mxCell>
        <mxCell id="J_Xm8iJVJi45nVl2dkx6-96" value="&amp;lt;&amp;lt;include&amp;gt;&amp;gt;" style="endArrow=open;endSize=12;dashed=1;html=1;rounded=0;exitX=1;exitY=0.5;exitDx=0;exitDy=0;entryX=0;entryY=0.5;entryDx=0;entryDy=0;" edge="1" parent="1" target="J_Xm8iJVJi45nVl2dkx6-95" source="J_Xm8iJVJi45nVl2dkx6-93">
          <mxGeometry width="160" relative="1" as="geometry">
            <mxPoint x="1524" y="100" as="sourcePoint" />
            <mxPoint x="1610" y="220" as="targetPoint" />
          </mxGeometry>
        </mxCell>
        <mxCell id="J_Xm8iJVJi45nVl2dkx6-97" value="Установление родительского контроля" style="ellipse;whiteSpace=wrap;html=1;" vertex="1" parent="1">
          <mxGeometry x="1534" y="300" width="120" height="80" as="geometry" />
        </mxCell>
        <mxCell id="J_Xm8iJVJi45nVl2dkx6-98" value="&amp;lt;&amp;lt;include&amp;gt;&amp;gt;" style="endArrow=open;endSize=12;dashed=1;html=1;rounded=0;entryX=0;entryY=0.5;entryDx=0;entryDy=0;exitX=1;exitY=0.5;exitDx=0;exitDy=0;" edge="1" parent="1" target="J_Xm8iJVJi45nVl2dkx6-97" source="J_Xm8iJVJi45nVl2dkx6-93">
          <mxGeometry width="160" relative="1" as="geometry">
            <mxPoint x="1410" y="310" as="sourcePoint" />
            <mxPoint x="1200" y="440" as="targetPoint" />
          </mxGeometry>
        </mxCell>
        <mxCell id="J_Xm8iJVJi45nVl2dkx6-99" value="Просмотр категории &quot;Понравившееся&quot;" style="ellipse;whiteSpace=wrap;html=1;" vertex="1" parent="1">
          <mxGeometry x="1534" y="400" width="120" height="80" as="geometry" />
        </mxCell>
        <mxCell id="J_Xm8iJVJi45nVl2dkx6-100" value="&amp;lt;&amp;lt;include&amp;gt;&amp;gt;" style="endArrow=open;endSize=12;dashed=1;html=1;rounded=0;exitX=0.5;exitY=1;exitDx=0;exitDy=0;entryX=0;entryY=0.5;entryDx=0;entryDy=0;" edge="1" parent="1" target="J_Xm8iJVJi45nVl2dkx6-99">
          <mxGeometry width="160" relative="1" as="geometry">
            <mxPoint x="1410" y="310" as="sourcePoint" />
            <mxPoint x="1200" y="440" as="targetPoint" />
          </mxGeometry>
        </mxCell>
        <mxCell id="J_Xm8iJVJi45nVl2dkx6-101" value="Просмотр категории &quot;Посмотреть позже&quot;" style="ellipse;whiteSpace=wrap;html=1;" vertex="1" parent="1">
          <mxGeometry x="1534" y="100" width="120" height="80" as="geometry" />
        </mxCell>
        <mxCell id="J_Xm8iJVJi45nVl2dkx6-102" value="&amp;lt;&amp;lt;include&amp;gt;&amp;gt;" style="endArrow=open;endSize=12;dashed=1;html=1;rounded=0;exitX=1;exitY=0.5;exitDx=0;exitDy=0;entryX=0;entryY=0.5;entryDx=0;entryDy=0;" edge="1" parent="1" target="J_Xm8iJVJi45nVl2dkx6-101" source="J_Xm8iJVJi45nVl2dkx6-93">
          <mxGeometry width="160" relative="1" as="geometry">
            <mxPoint x="1510" y="-10" as="sourcePoint" />
            <mxPoint x="1300" y="120" as="targetPoint" />
          </mxGeometry>
        </mxCell>
        <mxCell id="J_Xm8iJVJi45nVl2dkx6-103" value="Просмотр новостей, связанных с киноиндустрией" style="ellipse;whiteSpace=wrap;html=1;" vertex="1" parent="1">
          <mxGeometry x="1534" y="500" width="120" height="80" as="geometry" />
        </mxCell>
        <mxCell id="J_Xm8iJVJi45nVl2dkx6-104" value="&amp;lt;&amp;lt;include&amp;gt;&amp;gt;" style="endArrow=open;endSize=12;dashed=1;html=1;rounded=0;exitX=1;exitY=0.5;exitDx=0;exitDy=0;entryX=0;entryY=0.5;entryDx=0;entryDy=0;" edge="1" parent="1" target="J_Xm8iJVJi45nVl2dkx6-103" source="J_Xm8iJVJi45nVl2dkx6-93">
          <mxGeometry width="160" relative="1" as="geometry">
            <mxPoint x="1524" y="390" as="sourcePoint" />
            <mxPoint x="1314" y="520" as="targetPoint" />
          </mxGeometry>
        </mxCell>
        <mxCell id="J_Xm8iJVJi45nVl2dkx6-107" value="Просмотр каталога главной страницы" style="ellipse;whiteSpace=wrap;html=1;" vertex="1" parent="1">
          <mxGeometry x="1760" y="260" width="120" height="80" as="geometry" />
        </mxCell>
        <mxCell id="J_Xm8iJVJi45nVl2dkx6-108" value="&amp;lt;&amp;lt;include&amp;gt;&amp;gt;" style="endArrow=open;endSize=12;dashed=1;html=1;rounded=0;exitX=1;exitY=0.5;exitDx=0;exitDy=0;entryX=0;entryY=0.5;entryDx=0;entryDy=0;" edge="1" parent="1" target="J_Xm8iJVJi45nVl2dkx6-107" source="J_Xm8iJVJi45nVl2dkx6-95">
          <mxGeometry width="160" relative="1" as="geometry">
            <mxPoint x="1730" y="120" as="sourcePoint" />
            <mxPoint x="1520" y="250" as="targetPoint" />
          </mxGeometry>
        </mxCell>
        <mxCell id="J_Xm8iJVJi45nVl2dkx6-109" value="Выбор категории" style="ellipse;whiteSpace=wrap;html=1;" vertex="1" parent="1">
          <mxGeometry x="1760" y="160" width="120" height="80" as="geometry" />
        </mxCell>
        <mxCell id="J_Xm8iJVJi45nVl2dkx6-110" value="&amp;lt;&amp;lt;include&amp;gt;&amp;gt;" style="endArrow=open;endSize=12;dashed=1;html=1;rounded=0;exitX=1;exitY=0.5;exitDx=0;exitDy=0;entryX=0;entryY=0.5;entryDx=0;entryDy=0;" edge="1" parent="1" target="J_Xm8iJVJi45nVl2dkx6-109" source="J_Xm8iJVJi45nVl2dkx6-95">
          <mxGeometry width="160" relative="1" as="geometry">
            <mxPoint x="1654" y="140" as="sourcePoint" />
            <mxPoint x="1520" y="150" as="targetPoint" />
          </mxGeometry>
        </mxCell>
        <mxCell id="J_Xm8iJVJi45nVl2dkx6-115" value="Выбор категории сериалы" style="ellipse;whiteSpace=wrap;html=1;" vertex="1" parent="1">
          <mxGeometry x="1980" y="240" width="120" height="80" as="geometry" />
        </mxCell>
        <mxCell id="J_Xm8iJVJi45nVl2dkx6-116" value="&amp;lt;&amp;lt;include&amp;gt;&amp;gt;" style="endArrow=open;endSize=12;dashed=1;html=1;rounded=0;exitX=1;exitY=0.5;exitDx=0;exitDy=0;entryX=0;entryY=0.5;entryDx=0;entryDy=0;" edge="1" parent="1" target="J_Xm8iJVJi45nVl2dkx6-115" source="J_Xm8iJVJi45nVl2dkx6-109">
          <mxGeometry width="160" relative="1" as="geometry">
            <mxPoint x="1930" y="85" as="sourcePoint" />
            <mxPoint x="1720" y="215" as="targetPoint" />
          </mxGeometry>
        </mxCell>
        <mxCell id="J_Xm8iJVJi45nVl2dkx6-117" value="Выбор категории фильмы" style="ellipse;whiteSpace=wrap;html=1;" vertex="1" parent="1">
          <mxGeometry x="1980" y="130" width="120" height="80" as="geometry" />
        </mxCell>
        <mxCell id="J_Xm8iJVJi45nVl2dkx6-118" value="&amp;lt;&amp;lt;include&amp;gt;&amp;gt;" style="endArrow=open;endSize=12;dashed=1;html=1;rounded=0;exitX=1;exitY=0.5;exitDx=0;exitDy=0;entryX=0;entryY=0.5;entryDx=0;entryDy=0;" edge="1" parent="1" target="J_Xm8iJVJi45nVl2dkx6-117" source="J_Xm8iJVJi45nVl2dkx6-109">
          <mxGeometry width="160" relative="1" as="geometry">
            <mxPoint x="2080" y="30" as="sourcePoint" />
            <mxPoint x="1870" y="160" as="targetPoint" />
          </mxGeometry>
        </mxCell>
        <mxCell id="J_Xm8iJVJi45nVl2dkx6-119" value="Выбор жанра" style="ellipse;whiteSpace=wrap;html=1;" vertex="1" parent="1">
          <mxGeometry x="2180" y="210" width="120" height="80" as="geometry" />
        </mxCell>
        <mxCell id="J_Xm8iJVJi45nVl2dkx6-120" value="&amp;lt;&amp;lt;include&amp;gt;&amp;gt;" style="endArrow=open;endSize=12;dashed=1;html=1;rounded=0;exitX=1;exitY=0.5;exitDx=0;exitDy=0;entryX=0;entryY=0.5;entryDx=0;entryDy=0;" edge="1" parent="1" target="J_Xm8iJVJi45nVl2dkx6-119" source="J_Xm8iJVJi45nVl2dkx6-115">
          <mxGeometry width="160" relative="1" as="geometry">
            <mxPoint x="2150" y="140" as="sourcePoint" />
            <mxPoint x="1940" y="270" as="targetPoint" />
          </mxGeometry>
        </mxCell>
        <mxCell id="J_Xm8iJVJi45nVl2dkx6-121" value="&amp;lt;&amp;lt;include&amp;gt;&amp;gt;" style="endArrow=open;endSize=12;dashed=1;html=1;rounded=0;exitX=1;exitY=0.5;exitDx=0;exitDy=0;entryX=0;entryY=0.5;entryDx=0;entryDy=0;" edge="1" parent="1" source="J_Xm8iJVJi45nVl2dkx6-117" target="J_Xm8iJVJi45nVl2dkx6-119">
          <mxGeometry width="160" relative="1" as="geometry">
            <mxPoint x="2110" y="290" as="sourcePoint" />
            <mxPoint x="2190" y="260" as="targetPoint" />
          </mxGeometry>
        </mxCell>
        <mxCell id="J_Xm8iJVJi45nVl2dkx6-122" value="Выбор фильма" style="ellipse;whiteSpace=wrap;html=1;" vertex="1" parent="1">
          <mxGeometry x="2180" y="360" width="120" height="80" as="geometry" />
        </mxCell>
        <mxCell id="J_Xm8iJVJi45nVl2dkx6-123" value="&amp;lt;&amp;lt;include&amp;gt;&amp;gt;" style="endArrow=open;endSize=12;dashed=1;html=1;rounded=0;exitX=0.5;exitY=1;exitDx=0;exitDy=0;entryX=0.5;entryY=0;entryDx=0;entryDy=0;" edge="1" parent="1" target="J_Xm8iJVJi45nVl2dkx6-122" source="J_Xm8iJVJi45nVl2dkx6-119">
          <mxGeometry width="160" relative="1" as="geometry">
            <mxPoint x="2300" y="240" as="sourcePoint" />
            <mxPoint x="2090" y="370" as="targetPoint" />
          </mxGeometry>
        </mxCell>
        <mxCell id="J_Xm8iJVJi45nVl2dkx6-124" value="Добавить в категорию &quot;Посмотреть позже&quot;" style="ellipse;whiteSpace=wrap;html=1;" vertex="1" parent="1">
          <mxGeometry x="2340" y="520" width="120" height="80" as="geometry" />
        </mxCell>
        <mxCell id="J_Xm8iJVJi45nVl2dkx6-125" value="&amp;lt;&amp;lt;extends&amp;gt;&amp;gt;" style="endArrow=open;endSize=12;dashed=1;html=1;rounded=0;exitX=0.5;exitY=0;exitDx=0;exitDy=0;entryX=0.5;entryY=1;entryDx=0;entryDy=0;" edge="1" parent="1" source="J_Xm8iJVJi45nVl2dkx6-124" target="J_Xm8iJVJi45nVl2dkx6-122">
          <mxGeometry width="160" relative="1" as="geometry">
            <mxPoint x="2930" y="150" as="sourcePoint" />
            <mxPoint x="2540" y="220" as="targetPoint" />
          </mxGeometry>
        </mxCell>
        <mxCell id="J_Xm8iJVJi45nVl2dkx6-126" value="Добавить в категорию &quot;Понравившееся&quot;" style="ellipse;whiteSpace=wrap;html=1;" vertex="1" parent="1">
          <mxGeometry x="2180" y="520" width="120" height="80" as="geometry" />
        </mxCell>
        <mxCell id="J_Xm8iJVJi45nVl2dkx6-127" value="&amp;lt;&amp;lt;extends&amp;gt;&amp;gt;" style="endArrow=open;endSize=12;dashed=1;html=1;rounded=0;exitX=0.5;exitY=0;exitDx=0;exitDy=0;entryX=0.5;entryY=1;entryDx=0;entryDy=0;" edge="1" parent="1" source="J_Xm8iJVJi45nVl2dkx6-126" target="J_Xm8iJVJi45nVl2dkx6-122">
          <mxGeometry width="160" relative="1" as="geometry">
            <mxPoint x="2930" y="245" as="sourcePoint" />
            <mxPoint x="2520" y="345" as="targetPoint" />
          </mxGeometry>
        </mxCell>
        <mxCell id="J_Xm8iJVJi45nVl2dkx6-128" value="Написать комментарий" style="ellipse;whiteSpace=wrap;html=1;" vertex="1" parent="1">
          <mxGeometry x="2010" y="520" width="120" height="80" as="geometry" />
        </mxCell>
        <mxCell id="J_Xm8iJVJi45nVl2dkx6-129" value="&amp;lt;&amp;lt;extends&amp;gt;&amp;gt;" style="endArrow=open;endSize=12;dashed=1;html=1;rounded=0;exitX=0.5;exitY=0;exitDx=0;exitDy=0;entryX=0.5;entryY=1;entryDx=0;entryDy=0;" edge="1" parent="1" source="J_Xm8iJVJi45nVl2dkx6-128" target="J_Xm8iJVJi45nVl2dkx6-122">
          <mxGeometry width="160" relative="1" as="geometry">
            <mxPoint x="2920" y="350" as="sourcePoint" />
            <mxPoint x="2730" y="300" as="targetPoint" />
          </mxGeometry>
        </mxCell>
        <mxCell id="J_Xm8iJVJi45nVl2dkx6-130" value="Выполнить поиск по названию" style="ellipse;whiteSpace=wrap;html=1;" vertex="1" parent="1">
          <mxGeometry x="1534" width="120" height="80" as="geometry" />
        </mxCell>
        <mxCell id="J_Xm8iJVJi45nVl2dkx6-131" value="&amp;lt;&amp;lt;include&amp;gt;&amp;gt;" style="endArrow=open;endSize=12;dashed=1;html=1;rounded=0;exitX=1;exitY=0.5;exitDx=0;exitDy=0;entryX=0;entryY=0.5;entryDx=0;entryDy=0;" edge="1" parent="1" target="J_Xm8iJVJi45nVl2dkx6-130" source="J_Xm8iJVJi45nVl2dkx6-93">
          <mxGeometry width="160" relative="1" as="geometry">
            <mxPoint x="1504" y="-70" as="sourcePoint" />
            <mxPoint x="1294" y="60" as="targetPoint" />
          </mxGeometry>
        </mxCell>
        <mxCell id="J_Xm8iJVJi45nVl2dkx6-132" value="Сменить тему приложения" style="ellipse;whiteSpace=wrap;html=1;" vertex="1" parent="1">
          <mxGeometry x="1534" y="600" width="120" height="80" as="geometry" />
        </mxCell>
        <mxCell id="J_Xm8iJVJi45nVl2dkx6-133" value="&amp;lt;&amp;lt;include&amp;gt;&amp;gt;" style="endArrow=open;endSize=12;dashed=1;html=1;rounded=0;exitX=1;exitY=0.5;exitDx=0;exitDy=0;entryX=0;entryY=0.5;entryDx=0;entryDy=0;" edge="1" parent="1" target="J_Xm8iJVJi45nVl2dkx6-132" source="J_Xm8iJVJi45nVl2dkx6-93">
          <mxGeometry width="160" relative="1" as="geometry">
            <mxPoint x="1504" y="530" as="sourcePoint" />
            <mxPoint x="1294" y="660" as="targetPoint" />
          </mxGeometry>
        </mxCell>
        <mxCell id="J_Xm8iJVJi45nVl2dkx6-134" value="Сменить локализацию" style="ellipse;whiteSpace=wrap;html=1;" vertex="1" parent="1">
          <mxGeometry x="1534" y="700" width="120" height="80" as="geometry" />
        </mxCell>
        <mxCell id="J_Xm8iJVJi45nVl2dkx6-135" value="&amp;lt;&amp;lt;include&amp;gt;&amp;gt;" style="endArrow=open;endSize=12;dashed=1;html=1;rounded=0;exitX=1;exitY=0.5;exitDx=0;exitDy=0;entryX=0;entryY=0.5;entryDx=0;entryDy=0;" edge="1" parent="1" target="J_Xm8iJVJi45nVl2dkx6-134" source="J_Xm8iJVJi45nVl2dkx6-93">
          <mxGeometry width="160" relative="1" as="geometry">
            <mxPoint x="1504" y="630" as="sourcePoint" />
            <mxPoint x="1294" y="760" as="targetPoint" />
          </mxGeometry>
        </mxCell>
        <mxCell id="J_Xm8iJVJi45nVl2dkx6-136" value="Русский" style="ellipse;whiteSpace=wrap;html=1;" vertex="1" parent="1">
          <mxGeometry x="1760" y="860" width="120" height="80" as="geometry" />
        </mxCell>
        <mxCell id="J_Xm8iJVJi45nVl2dkx6-137" value="&amp;lt;&amp;lt;extends&amp;gt;&amp;gt;" style="endArrow=open;endSize=12;dashed=1;html=1;rounded=0;exitX=0;exitY=0.5;exitDx=0;exitDy=0;entryX=1;entryY=0.5;entryDx=0;entryDy=0;" edge="1" parent="1" source="J_Xm8iJVJi45nVl2dkx6-136" target="J_Xm8iJVJi45nVl2dkx6-134">
          <mxGeometry width="160" relative="1" as="geometry">
            <mxPoint x="2020" y="750" as="sourcePoint" />
            <mxPoint x="1830" y="700" as="targetPoint" />
          </mxGeometry>
        </mxCell>
        <mxCell id="J_Xm8iJVJi45nVl2dkx6-138" value="Добавить описание" style="ellipse;whiteSpace=wrap;html=1;" vertex="1" parent="1">
          <mxGeometry x="1760" y="760" width="120" height="80" as="geometry" />
        </mxCell>
        <mxCell id="J_Xm8iJVJi45nVl2dkx6-139" value="&amp;lt;&amp;lt;extends&amp;gt;&amp;gt;" style="endArrow=open;endSize=12;dashed=1;html=1;rounded=0;entryX=1;entryY=0.5;entryDx=0;entryDy=0;exitX=0;exitY=0.5;exitDx=0;exitDy=0;" edge="1" parent="1" source="J_Xm8iJVJi45nVl2dkx6-138" target="J_Xm8iJVJi45nVl2dkx6-134">
          <mxGeometry width="160" relative="1" as="geometry">
            <mxPoint x="1670" y="690" as="sourcePoint" />
            <mxPoint x="1840" y="600" as="targetPoint" />
          </mxGeometry>
        </mxCell>
        <mxCell id="J_Xm8iJVJi45nVl2dkx6-144" value="Светлая" style="ellipse;whiteSpace=wrap;html=1;" vertex="1" parent="1">
          <mxGeometry x="1755" y="660" width="120" height="80" as="geometry" />
        </mxCell>
        <mxCell id="J_Xm8iJVJi45nVl2dkx6-145" value="&amp;lt;&amp;lt;extends&amp;gt;&amp;gt;" style="endArrow=open;endSize=12;dashed=1;html=1;rounded=0;exitX=0;exitY=0.5;exitDx=0;exitDy=0;entryX=1;entryY=0.5;entryDx=0;entryDy=0;" edge="1" parent="1" source="J_Xm8iJVJi45nVl2dkx6-144" target="J_Xm8iJVJi45nVl2dkx6-132">
          <mxGeometry width="160" relative="1" as="geometry">
            <mxPoint x="2075" y="550" as="sourcePoint" />
            <mxPoint x="1885" y="500" as="targetPoint" />
          </mxGeometry>
        </mxCell>
        <mxCell id="J_Xm8iJVJi45nVl2dkx6-146" value="Темная" style="ellipse;whiteSpace=wrap;html=1;" vertex="1" parent="1">
          <mxGeometry x="1760" y="560" width="120" height="80" as="geometry" />
        </mxCell>
        <mxCell id="J_Xm8iJVJi45nVl2dkx6-147" value="&amp;lt;&amp;lt;extends&amp;gt;&amp;gt;" style="endArrow=open;endSize=12;dashed=1;html=1;rounded=0;exitX=0;exitY=0.5;exitDx=0;exitDy=0;entryX=1;entryY=0.5;entryDx=0;entryDy=0;" edge="1" parent="1" source="J_Xm8iJVJi45nVl2dkx6-146" target="J_Xm8iJVJi45nVl2dkx6-132">
          <mxGeometry width="160" relative="1" as="geometry">
            <mxPoint x="2040" y="430" as="sourcePoint" />
            <mxPoint x="1850" y="380" as="targetPoint" />
          </mxGeometry>
        </mxCell>
        <mxCell id="J_Xm8iJVJi45nVl2dkx6-148" value="&lt;span style=&quot;&quot;&gt; &lt;/span&gt;&lt;span style=&quot;&quot;&gt; &lt;/span&gt;&lt;br&gt;&lt;span style=&quot;&quot;&gt; &lt;span style=&quot;&quot;&gt; &lt;/span&gt;&lt;/span&gt;&lt;span style=&quot;white-space: pre;&quot;&gt; &lt;/span&gt;&amp;lt;&amp;lt;БД&amp;gt;&amp;gt;&lt;br&gt;&lt;br&gt;&lt;span style=&quot;&quot;&gt; &lt;/span&gt; &lt;span style=&quot;white-space: pre;&quot;&gt; &lt;/span&gt;Сущность отзывов&lt;br style=&quot;border-color: var(--border-color);&quot;&gt;&lt;span style=&quot;border-color: var(--border-color);&quot;&gt; &lt;/span&gt;&lt;span style=&quot;white-space: pre;&quot;&gt; &lt;/span&gt;Сущность клиентов&lt;br style=&quot;border-color: var(--border-color);&quot;&gt;&lt;span style=&quot;border-color: var(--border-color);&quot;&gt; &lt;/span&gt;&lt;span style=&quot;white-space: pre;&quot;&gt; &lt;/span&gt;Сущность описания фильмов, сериалов" style="verticalAlign=top;align=left;spacingTop=8;spacingLeft=2;spacingRight=12;shape=cube;size=10;direction=south;fontStyle=4;html=1;whiteSpace=wrap;fontSize=16;" vertex="1" parent="1">
          <mxGeometry x="880" y="1656" width="219" height="164" as="geometry" />
        </mxCell>
        <mxCell id="J_Xm8iJVJi45nVl2dkx6-149" value="" style="endArrow=block;dashed=1;endFill=0;endSize=12;html=1;rounded=0;fontSize=12;curved=1;exitX=0;exitY=0;exitDx=0;exitDy=104.5;exitPerimeter=0;entryX=0;entryY=0;entryDx=160;entryDy=114.5;entryPerimeter=0;" edge="1" parent="1" source="J_Xm8iJVJi45nVl2dkx6-148" target="J_Xm8iJVJi45nVl2dkx6-150">
          <mxGeometry width="160" relative="1" as="geometry">
            <mxPoint x="994" y="1639" as="sourcePoint" />
            <mxPoint x="996" y="1580" as="targetPoint" />
          </mxGeometry>
        </mxCell>
        <mxCell id="J_Xm8iJVJi45nVl2dkx6-150" value="&lt;span style=&quot;&quot;&gt; &lt;/span&gt;&lt;span style=&quot;&quot;&gt; &lt;/span&gt;&lt;br&gt;&lt;span style=&quot;&quot;&gt; &lt;/span&gt;&amp;lt;&amp;lt;Контекст БД&amp;gt;&amp;gt;&lt;br&gt;&lt;br&gt; Сущность отзывов&lt;br style=&quot;border-color: var(--border-color);&quot;&gt;&lt;span style=&quot;border-color: var(--border-color);&quot;&gt;&lt;/span&gt;&lt;span style=&quot;border-color: var(--border-color);&quot;&gt; &lt;/span&gt;Сущность клиентов&lt;br style=&quot;border-color: var(--border-color);&quot;&gt;&lt;span style=&quot;border-color: var(--border-color);&quot;&gt;&lt;/span&gt;&lt;span style=&quot;border-color: var(--border-color);&quot;&gt; &lt;/span&gt;Сущность описания фильмов, сериалов" style="verticalAlign=top;align=left;spacingTop=8;spacingLeft=2;spacingRight=12;shape=cube;size=10;direction=south;fontStyle=4;html=1;whiteSpace=wrap;fontSize=16;" vertex="1" parent="1">
          <mxGeometry x="890" y="1430" width="219" height="160" as="geometry" />
        </mxCell>
        <mxCell id="J_Xm8iJVJi45nVl2dkx6-151" value="&lt;br&gt;&lt;span style=&quot;white-space: pre;&quot;&gt; &lt;/span&gt;Админ" style="verticalAlign=top;align=left;spacingTop=8;spacingLeft=2;spacingRight=12;shape=cube;size=10;direction=south;fontStyle=4;html=1;whiteSpace=wrap;fontSize=16;" vertex="1" parent="1">
          <mxGeometry x="160" y="1550" width="180" height="87" as="geometry" />
        </mxCell>
        <mxCell id="J_Xm8iJVJi45nVl2dkx6-152" value="&lt;span style=&quot;&quot;&gt; &lt;/span&gt;&lt;span style=&quot;&quot;&gt; &lt;/span&gt;&lt;br&gt;&lt;span style=&quot;&quot;&gt; &lt;/span&gt;&amp;lt;&amp;lt;Панель&lt;br&gt;&lt;span style=&quot;&quot;&gt; &lt;/span&gt;администратора&amp;gt;&amp;gt;&lt;br&gt;&lt;br&gt;&lt;span style=&quot;&quot;&gt; &lt;/span&gt;Добавление фильма,сериала&lt;br&gt;Удаление фильма,сериала из БД&lt;br&gt;Просмотр данных о пользователе(логин, предпочтения)" style="verticalAlign=top;align=left;spacingTop=8;spacingLeft=2;spacingRight=12;shape=cube;size=10;direction=south;fontStyle=4;html=1;whiteSpace=wrap;fontSize=16;" vertex="1" parent="1">
          <mxGeometry x="463" y="1490" width="247" height="220" as="geometry" />
        </mxCell>
        <mxCell id="J_Xm8iJVJi45nVl2dkx6-153" value="" style="endArrow=none;html=1;rounded=0;fontSize=12;startSize=8;endSize=8;curved=1;exitX=0;exitY=0;exitDx=38.5;exitDy=0;exitPerimeter=0;entryX=0;entryY=0;entryDx=72.5;entryDy=247.00000000000003;entryPerimeter=0;" edge="1" parent="1" source="J_Xm8iJVJi45nVl2dkx6-151" target="J_Xm8iJVJi45nVl2dkx6-152">
          <mxGeometry width="50" height="50" relative="1" as="geometry">
            <mxPoint x="425" y="1439" as="sourcePoint" />
            <mxPoint x="475" y="1389" as="targetPoint" />
          </mxGeometry>
        </mxCell>
        <mxCell id="J_Xm8iJVJi45nVl2dkx6-154" value="" style="endArrow=none;html=1;rounded=0;fontSize=12;startSize=8;endSize=8;curved=1;exitX=0;exitY=0;exitDx=62.5;exitDy=0;exitPerimeter=0;entryX=0;entryY=0;entryDx=85;entryDy=219;entryPerimeter=0;" edge="1" parent="1" source="J_Xm8iJVJi45nVl2dkx6-152" target="J_Xm8iJVJi45nVl2dkx6-150">
          <mxGeometry width="50" height="50" relative="1" as="geometry">
            <mxPoint x="690" y="1567" as="sourcePoint" />
            <mxPoint x="813" y="1540" as="targetPoint" />
          </mxGeometry>
        </mxCell>
        <mxCell id="J_Xm8iJVJi45nVl2dkx6-156" value="&lt;span style=&quot;white-space: pre;&quot;&gt; &lt;/span&gt;&lt;span style=&quot;white-space: pre;&quot;&gt; &lt;/span&gt;&lt;br&gt;&lt;span style=&quot;white-space: pre;&quot;&gt; &lt;/span&gt;&amp;lt;&amp;lt;Приложение&amp;gt;&amp;gt;&lt;br&gt;&lt;br&gt;&lt;span style=&quot;white-space: pre;&quot;&gt; Просмотр каталога фильмов&lt;br/&gt;Просмотр новостей&lt;br/&gt;Просмотр рекомендаций&lt;br/&gt;&lt;/span&gt;" style="verticalAlign=top;align=left;spacingTop=8;spacingLeft=2;spacingRight=12;shape=cube;size=10;direction=south;fontStyle=4;html=1;whiteSpace=wrap;fontSize=16;" vertex="1" parent="1">
          <mxGeometry x="440" y="1290" width="260" height="135" as="geometry" />
        </mxCell>
        <mxCell id="J_Xm8iJVJi45nVl2dkx6-157" value="&lt;br&gt;&lt;span style=&quot;white-space: pre;&quot;&gt; &lt;/span&gt;Клиент" style="verticalAlign=top;align=left;spacingTop=8;spacingLeft=2;spacingRight=12;shape=cube;size=10;direction=south;fontStyle=4;html=1;whiteSpace=wrap;fontSize=16;" vertex="1" parent="1">
          <mxGeometry x="180" y="1350" width="180" height="87" as="geometry" />
        </mxCell>
        <mxCell id="J_Xm8iJVJi45nVl2dkx6-158" value="" style="endArrow=none;html=1;rounded=0;exitX=0;exitY=0;exitDx=38.5;exitDy=0;exitPerimeter=0;entryX=0;entryY=0;entryDx=72.5;entryDy=260;entryPerimeter=0;" edge="1" parent="1" source="J_Xm8iJVJi45nVl2dkx6-157" target="J_Xm8iJVJi45nVl2dkx6-156">
          <mxGeometry width="50" height="50" relative="1" as="geometry">
            <mxPoint x="630" y="1340" as="sourcePoint" />
            <mxPoint x="680" y="1290" as="targetPoint" />
          </mxGeometry>
        </mxCell>
        <mxCell id="J_Xm8iJVJi45nVl2dkx6-159" value="" style="endArrow=none;html=1;rounded=0;entryX=0;entryY=0;entryDx=85;entryDy=219;entryPerimeter=0;exitX=0;exitY=0;exitDx=62.5;exitDy=0;exitPerimeter=0;" edge="1" parent="1" source="J_Xm8iJVJi45nVl2dkx6-156" target="J_Xm8iJVJi45nVl2dkx6-150">
          <mxGeometry width="50" height="50" relative="1" as="geometry">
            <mxPoint x="700" y="1410" as="sourcePoint" />
            <mxPoint x="750" y="1360" as="targetPoint" />
          </mxGeometry>
        </mxCell>
        <mxCell id="J_Xm8iJVJi45nVl2dkx6-160" value="&lt;h2&gt;Размещение&lt;/h2&gt;" style="text;html=1;strokeColor=none;fillColor=none;align=center;verticalAlign=middle;whiteSpace=wrap;rounded=0;fontSize=16;" vertex="1" parent="1">
          <mxGeometry x="520" y="1220" width="104" height="30" as="geometry" />
        </mxCell>
        <mxCell id="J_Xm8iJVJi45nVl2dkx6-171" value="Application" style="swimlane;fontStyle=1;align=center;verticalAlign=top;childLayout=stackLayout;horizontal=1;startSize=26;horizontalStack=0;resizeParent=1;resizeParentMax=0;resizeLast=0;collapsible=1;marginBottom=0;whiteSpace=wrap;html=1;" vertex="1" parent="1">
          <mxGeometry x="2390" y="1514" width="160" height="86" as="geometry" />
        </mxCell>
        <mxCell id="J_Xm8iJVJi45nVl2dkx6-172" value="+ field: type" style="text;strokeColor=none;fillColor=none;align=left;verticalAlign=top;spacingLeft=4;spacingRight=4;overflow=hidden;rotatable=0;points=[[0,0.5],[1,0.5]];portConstraint=eastwest;whiteSpace=wrap;html=1;" vertex="1" parent="J_Xm8iJVJi45nVl2dkx6-171">
          <mxGeometry y="26" width="160" height="26" as="geometry" />
        </mxCell>
        <mxCell id="J_Xm8iJVJi45nVl2dkx6-173" value="" style="line;strokeWidth=1;fillColor=none;align=left;verticalAlign=middle;spacingTop=-1;spacingLeft=3;spacingRight=3;rotatable=0;labelPosition=right;points=[];portConstraint=eastwest;strokeColor=inherit;" vertex="1" parent="J_Xm8iJVJi45nVl2dkx6-171">
          <mxGeometry y="52" width="160" height="8" as="geometry" />
        </mxCell>
        <mxCell id="J_Xm8iJVJi45nVl2dkx6-174" value="&amp;nbsp;" style="text;strokeColor=none;fillColor=none;align=left;verticalAlign=top;spacingLeft=4;spacingRight=4;overflow=hidden;rotatable=0;points=[[0,0.5],[1,0.5]];portConstraint=eastwest;whiteSpace=wrap;html=1;" vertex="1" parent="J_Xm8iJVJi45nVl2dkx6-171">
          <mxGeometry y="60" width="160" height="26" as="geometry" />
        </mxCell>
        <mxCell id="J_Xm8iJVJi45nVl2dkx6-175" value="Rewie" style="swimlane;fontStyle=1;align=center;verticalAlign=top;childLayout=stackLayout;horizontal=1;startSize=26;horizontalStack=0;resizeParent=1;resizeParentMax=0;resizeLast=0;collapsible=1;marginBottom=0;whiteSpace=wrap;html=1;" vertex="1" parent="1">
          <mxGeometry x="2920" y="1490" width="160" height="134" as="geometry" />
        </mxCell>
        <mxCell id="J_Xm8iJVJi45nVl2dkx6-186" value="1" style="endArrow=open;html=1;endSize=12;startArrow=diamondThin;startSize=14;startFill=1;edgeStyle=orthogonalEdgeStyle;align=left;verticalAlign=bottom;rounded=0;entryX=0;entryY=0.5;entryDx=0;entryDy=0;" edge="1" parent="J_Xm8iJVJi45nVl2dkx6-175" target="J_Xm8iJVJi45nVl2dkx6-176">
          <mxGeometry x="-1" y="3" relative="1" as="geometry">
            <mxPoint x="-110" y="62.680000000000064" as="sourcePoint" />
            <mxPoint x="50" y="62.680000000000064" as="targetPoint" />
          </mxGeometry>
        </mxCell>
        <mxCell id="J_Xm8iJVJi45nVl2dkx6-176" value="+ ID: int&lt;br&gt;+ Login:string&lt;br&gt;+ UserRewieText:string" style="text;strokeColor=none;fillColor=none;align=left;verticalAlign=top;spacingLeft=4;spacingRight=4;overflow=hidden;rotatable=0;points=[[0,0.5],[1,0.5]];portConstraint=eastwest;whiteSpace=wrap;html=1;" vertex="1" parent="J_Xm8iJVJi45nVl2dkx6-175">
          <mxGeometry y="26" width="160" height="74" as="geometry" />
        </mxCell>
        <mxCell id="J_Xm8iJVJi45nVl2dkx6-177" value="" style="line;strokeWidth=1;fillColor=none;align=left;verticalAlign=middle;spacingTop=-1;spacingLeft=3;spacingRight=3;rotatable=0;labelPosition=right;points=[];portConstraint=eastwest;strokeColor=inherit;" vertex="1" parent="J_Xm8iJVJi45nVl2dkx6-175">
          <mxGeometry y="100" width="160" height="8" as="geometry" />
        </mxCell>
        <mxCell id="J_Xm8iJVJi45nVl2dkx6-178" value="&amp;nbsp;" style="text;strokeColor=none;fillColor=none;align=left;verticalAlign=top;spacingLeft=4;spacingRight=4;overflow=hidden;rotatable=0;points=[[0,0.5],[1,0.5]];portConstraint=eastwest;whiteSpace=wrap;html=1;" vertex="1" parent="J_Xm8iJVJi45nVl2dkx6-175">
          <mxGeometry y="108" width="160" height="26" as="geometry" />
        </mxCell>
        <mxCell id="J_Xm8iJVJi45nVl2dkx6-181" value="UserProfile" style="swimlane;fontStyle=1;align=center;verticalAlign=top;childLayout=stackLayout;horizontal=1;startSize=26;horizontalStack=0;resizeParent=1;resizeParentMax=0;resizeLast=0;collapsible=1;marginBottom=0;whiteSpace=wrap;html=1;" vertex="1" parent="1">
          <mxGeometry x="2650" y="1485" width="160" height="164" as="geometry" />
        </mxCell>
        <mxCell id="J_Xm8iJVJi45nVl2dkx6-182" value="+ ID: int&lt;br&gt;+ Age : int&lt;br&gt;+ Login : string&lt;br&gt;+ Email : string&lt;br&gt;+ Avatar: byte[]&lt;br&gt;+ Rewies: List&amp;lt;Rewie&amp;gt;" style="text;strokeColor=none;fillColor=none;align=left;verticalAlign=top;spacingLeft=4;spacingRight=4;overflow=hidden;rotatable=0;points=[[0,0.5],[1,0.5]];portConstraint=eastwest;whiteSpace=wrap;html=1;" vertex="1" parent="J_Xm8iJVJi45nVl2dkx6-181">
          <mxGeometry y="26" width="160" height="104" as="geometry" />
        </mxCell>
        <mxCell id="J_Xm8iJVJi45nVl2dkx6-183" value="" style="line;strokeWidth=1;fillColor=none;align=left;verticalAlign=middle;spacingTop=-1;spacingLeft=3;spacingRight=3;rotatable=0;labelPosition=right;points=[];portConstraint=eastwest;strokeColor=inherit;" vertex="1" parent="J_Xm8iJVJi45nVl2dkx6-181">
          <mxGeometry y="130" width="160" height="8" as="geometry" />
        </mxCell>
        <mxCell id="J_Xm8iJVJi45nVl2dkx6-184" value="+ PostRewie(String): Rewie" style="text;strokeColor=none;fillColor=none;align=left;verticalAlign=top;spacingLeft=4;spacingRight=4;overflow=hidden;rotatable=0;points=[[0,0.5],[1,0.5]];portConstraint=eastwest;whiteSpace=wrap;html=1;" vertex="1" parent="J_Xm8iJVJi45nVl2dkx6-181">
          <mxGeometry y="138" width="160" height="26" as="geometry" />
        </mxCell>
        <mxCell id="J_Xm8iJVJi45nVl2dkx6-187" value="1" style="endArrow=open;html=1;endSize=12;startArrow=diamondThin;startSize=14;startFill=0;edgeStyle=orthogonalEdgeStyle;align=left;verticalAlign=bottom;rounded=0;" edge="1" parent="1">
          <mxGeometry x="-1" y="3" relative="1" as="geometry">
            <mxPoint x="2550" y="1556.68" as="sourcePoint" />
            <mxPoint x="2650" y="1557" as="targetPoint" />
          </mxGeometry>
        </mxCell>
        <mxCell id="J_Xm8iJVJi45nVl2dkx6-188" value="MiniItemInfo" style="swimlane;fontStyle=1;align=center;verticalAlign=top;childLayout=stackLayout;horizontal=1;startSize=26;horizontalStack=0;resizeParent=1;resizeParentMax=0;resizeLast=0;collapsible=1;marginBottom=0;whiteSpace=wrap;html=1;" vertex="1" parent="1">
          <mxGeometry x="2120" y="1484" width="180" height="138" as="geometry" />
        </mxCell>
        <mxCell id="J_Xm8iJVJi45nVl2dkx6-189" value="+ ID: int&lt;br&gt;+ NameOfMovie : string&lt;br&gt;+ Genre : string&lt;br&gt;+ smallIMG: byte[]" style="text;strokeColor=none;fillColor=none;align=left;verticalAlign=top;spacingLeft=4;spacingRight=4;overflow=hidden;rotatable=0;points=[[0,0.5],[1,0.5]];portConstraint=eastwest;whiteSpace=wrap;html=1;" vertex="1" parent="J_Xm8iJVJi45nVl2dkx6-188">
          <mxGeometry y="26" width="180" height="84" as="geometry" />
        </mxCell>
        <mxCell id="J_Xm8iJVJi45nVl2dkx6-190" value="" style="line;strokeWidth=1;fillColor=none;align=left;verticalAlign=middle;spacingTop=-1;spacingLeft=3;spacingRight=3;rotatable=0;labelPosition=right;points=[];portConstraint=eastwest;strokeColor=inherit;" vertex="1" parent="J_Xm8iJVJi45nVl2dkx6-188">
          <mxGeometry y="110" width="180" height="2" as="geometry" />
        </mxCell>
        <mxCell id="J_Xm8iJVJi45nVl2dkx6-191" value="+ GetFullInf(Int): BigItemInfo" style="text;strokeColor=none;fillColor=none;align=left;verticalAlign=top;spacingLeft=4;spacingRight=4;overflow=hidden;rotatable=0;points=[[0,0.5],[1,0.5]];portConstraint=eastwest;whiteSpace=wrap;html=1;" vertex="1" parent="J_Xm8iJVJi45nVl2dkx6-188">
          <mxGeometry y="112" width="180" height="26" as="geometry" />
        </mxCell>
        <mxCell id="J_Xm8iJVJi45nVl2dkx6-192" value="1" style="endArrow=open;html=1;endSize=12;startArrow=diamondThin;startSize=14;startFill=0;edgeStyle=orthogonalEdgeStyle;align=left;verticalAlign=bottom;rounded=0;exitX=0;exitY=0.5;exitDx=0;exitDy=0;entryX=1;entryY=0.5;entryDx=0;entryDy=0;" edge="1" parent="1" source="J_Xm8iJVJi45nVl2dkx6-172" target="J_Xm8iJVJi45nVl2dkx6-189">
          <mxGeometry x="-1" y="3" relative="1" as="geometry">
            <mxPoint x="2250" y="1644" as="sourcePoint" />
            <mxPoint x="2410" y="1644" as="targetPoint" />
            <Array as="points">
              <mxPoint x="2350" y="1553" />
              <mxPoint x="2350" y="1552" />
            </Array>
          </mxGeometry>
        </mxCell>
        <mxCell id="J_Xm8iJVJi45nVl2dkx6-193" value="BigItemInfo" style="swimlane;fontStyle=1;align=center;verticalAlign=top;childLayout=stackLayout;horizontal=1;startSize=26;horizontalStack=0;resizeParent=1;resizeParentMax=0;resizeLast=0;collapsible=1;marginBottom=0;whiteSpace=wrap;html=1;" vertex="1" parent="1">
          <mxGeometry x="2080" y="1680" width="270" height="198" as="geometry" />
        </mxCell>
        <mxCell id="J_Xm8iJVJi45nVl2dkx6-194" value="+ ID: int&lt;br&gt;+ Year: int&lt;br&gt;+ Genre : string&lt;br&gt;+ BigImg : byte[]&lt;br&gt;+ Country : string&lt;br&gt;+ Description : string&lt;br&gt;+&amp;nbsp;framesFromMovies:&amp;nbsp;List&amp;lt;FramesFromMovie&amp;gt;&lt;br&gt;+&amp;nbsp;reviews : List&amp;lt;Review&amp;gt;&lt;br&gt;+MiniItemInfo : MiniItemInfo" style="text;strokeColor=none;fillColor=none;align=left;verticalAlign=top;spacingLeft=4;spacingRight=4;overflow=hidden;rotatable=0;points=[[0,0.5],[1,0.5]];portConstraint=eastwest;whiteSpace=wrap;html=1;" vertex="1" parent="J_Xm8iJVJi45nVl2dkx6-193">
          <mxGeometry y="26" width="270" height="144" as="geometry" />
        </mxCell>
        <mxCell id="J_Xm8iJVJi45nVl2dkx6-195" value="" style="line;strokeWidth=1;fillColor=none;align=left;verticalAlign=middle;spacingTop=-1;spacingLeft=3;spacingRight=3;rotatable=0;labelPosition=right;points=[];portConstraint=eastwest;strokeColor=inherit;" vertex="1" parent="J_Xm8iJVJi45nVl2dkx6-193">
          <mxGeometry y="170" width="270" height="2" as="geometry" />
        </mxCell>
        <mxCell id="J_Xm8iJVJi45nVl2dkx6-196" value="+ GetFrames(Int): Frame" style="text;strokeColor=none;fillColor=none;align=left;verticalAlign=top;spacingLeft=4;spacingRight=4;overflow=hidden;rotatable=0;points=[[0,0.5],[1,0.5]];portConstraint=eastwest;whiteSpace=wrap;html=1;" vertex="1" parent="J_Xm8iJVJi45nVl2dkx6-193">
          <mxGeometry y="172" width="270" height="26" as="geometry" />
        </mxCell>
        <mxCell id="J_Xm8iJVJi45nVl2dkx6-200" value="" style="endArrow=diamondThin;endFill=0;endSize=24;html=1;rounded=0;exitX=0.498;exitY=1.15;exitDx=0;exitDy=0;exitPerimeter=0;" edge="1" parent="1" source="J_Xm8iJVJi45nVl2dkx6-191">
          <mxGeometry width="160" relative="1" as="geometry">
            <mxPoint x="2570" y="1720" as="sourcePoint" />
            <mxPoint x="2210" y="1680" as="targetPoint" />
          </mxGeometry>
        </mxCell>
        <mxCell id="J_Xm8iJVJi45nVl2dkx6-201" value="1" style="text;html=1;align=center;verticalAlign=middle;resizable=0;points=[];autosize=1;strokeColor=none;fillColor=none;" vertex="1" parent="1">
          <mxGeometry x="2200" y="1620" width="30" height="30" as="geometry" />
        </mxCell>
        <mxCell id="J_Xm8iJVJi45nVl2dkx6-202" value="1" style="text;html=1;align=center;verticalAlign=middle;resizable=0;points=[];autosize=1;strokeColor=none;fillColor=none;" vertex="1" parent="1">
          <mxGeometry x="2210" y="1656" width="30" height="30" as="geometry" />
        </mxCell>
        <mxCell id="J_Xm8iJVJi45nVl2dkx6-203" value="FramesFromMovie" style="swimlane;fontStyle=1;align=center;verticalAlign=top;childLayout=stackLayout;horizontal=1;startSize=26;horizontalStack=0;resizeParent=1;resizeParentMax=0;resizeLast=0;collapsible=1;marginBottom=0;whiteSpace=wrap;html=1;" vertex="1" parent="1">
          <mxGeometry x="2440" y="1700" width="160" height="164" as="geometry" />
        </mxCell>
        <mxCell id="J_Xm8iJVJi45nVl2dkx6-204" value="+ ID: int&lt;br&gt;+ Frame: byte[]" style="text;strokeColor=none;fillColor=none;align=left;verticalAlign=top;spacingLeft=4;spacingRight=4;overflow=hidden;rotatable=0;points=[[0,0.5],[1,0.5]];portConstraint=eastwest;whiteSpace=wrap;html=1;" vertex="1" parent="J_Xm8iJVJi45nVl2dkx6-203">
          <mxGeometry y="26" width="160" height="104" as="geometry" />
        </mxCell>
        <mxCell id="J_Xm8iJVJi45nVl2dkx6-205" value="" style="line;strokeWidth=1;fillColor=none;align=left;verticalAlign=middle;spacingTop=-1;spacingLeft=3;spacingRight=3;rotatable=0;labelPosition=right;points=[];portConstraint=eastwest;strokeColor=inherit;" vertex="1" parent="J_Xm8iJVJi45nVl2dkx6-203">
          <mxGeometry y="130" width="160" height="8" as="geometry" />
        </mxCell>
        <mxCell id="J_Xm8iJVJi45nVl2dkx6-206" value="+ GetFrame(String): void" style="text;strokeColor=none;fillColor=none;align=left;verticalAlign=top;spacingLeft=4;spacingRight=4;overflow=hidden;rotatable=0;points=[[0,0.5],[1,0.5]];portConstraint=eastwest;whiteSpace=wrap;html=1;" vertex="1" parent="J_Xm8iJVJi45nVl2dkx6-203">
          <mxGeometry y="138" width="160" height="26" as="geometry" />
        </mxCell>
        <mxCell id="J_Xm8iJVJi45nVl2dkx6-207" value="1" style="endArrow=open;html=1;endSize=12;startArrow=diamondThin;startSize=14;startFill=1;edgeStyle=orthogonalEdgeStyle;align=left;verticalAlign=bottom;rounded=0;entryX=0;entryY=0.428;entryDx=0;entryDy=0;entryPerimeter=0;" edge="1" parent="1" target="J_Xm8iJVJi45nVl2dkx6-204">
          <mxGeometry x="-1" y="3" relative="1" as="geometry">
            <mxPoint x="2350" y="1770" as="sourcePoint" />
            <mxPoint x="2460" y="1770.32" as="targetPoint" />
          </mxGeometry>
        </mxCell>
        <mxCell id="J_Xm8iJVJi45nVl2dkx6-209" value="1" style="endArrow=open;html=1;endSize=12;startArrow=diamondThin;startSize=14;startFill=1;edgeStyle=orthogonalEdgeStyle;align=left;verticalAlign=bottom;rounded=0;exitX=0.454;exitY=1.126;exitDx=0;exitDy=0;exitPerimeter=0;entryX=0.517;entryY=1.181;entryDx=0;entryDy=0;entryPerimeter=0;" edge="1" parent="1" source="J_Xm8iJVJi45nVl2dkx6-196" target="J_Xm8iJVJi45nVl2dkx6-178">
          <mxGeometry x="-1" y="3" relative="1" as="geometry">
            <mxPoint x="2210" y="1930" as="sourcePoint" />
            <mxPoint x="2370" y="1930" as="targetPoint" />
            <Array as="points">
              <mxPoint x="2203" y="1960" />
              <mxPoint x="3003" y="1960" />
            </Array>
          </mxGeometry>
        </mxCell>
      </root>
    </mxGraphModel>
  </diagram>
</mxfile>
